<svg width="24" height="24" viewBox="0 0 24 24" fill="none" xmlns="http://www.w3.org/2000/svg">
<path fill-rule="evenodd" clip-rule="evenodd" d="M0 12C0 18.6274 5.37258 24 12 24C18.6274 24 24 18.6274 24 12C24 5.37258 18.6274 0 12 0C5.37258 0 0 5.37258 0 12ZM21.8182 12C21.8182 17.4224 17.4224 21.8182 12 21.8182C6.57757 21.8182 2.18182 17.4224 2.18182 12C2.18182 6.57757 6.57757 2.18182 12 2.18182C17.4224 2.18182 21.8182 6.57757 21.8182 12Z" fill="#EBEBEB"/>
<path fill-rule="evenodd" clip-rule="evenodd" d="M12 13.4142L8.70706 16.7071L7.29285 15.2929L10.5857 12L7.29285 8.70711L8.70706 7.29289L12 10.5858L15.2928 7.29289L16.7071 8.70711L13.4142 12L16.7071 15.2929L15.2928 16.7071L12 13.4142Z" fill="#BFBFBF"/>
</svg>
